<svg xmlns="http://www.w3.org/2000/svg" viewBox="0 0 500 340" fill="none">
  <rect width="500" height="340" rx="32" fill="#eef7e7"/>
  <path d="M86 248c38-32 82-54 132-56 52-2 90 16 138 20 18 2 38 6 56 0" stroke="#62a544" stroke-width="22" stroke-linecap="round"/>
  <circle cx="220" cy="160" r="42" fill="#f7c94f"/>
  <path d="M220 122c26 14 42 43 42 72" stroke="#ffffff" stroke-width="8" stroke-linecap="round"/>
  <path d="M220 198c-25-14-42-43-42-72" stroke="#ffffff" stroke-width="8" stroke-linecap="round"/>
  <path d="M150 130c0-26 22-48 48-48s48 22 48 48" stroke="#4a7e45" stroke-width="14" fill="none"/>
  <path d="M150 238c0-14 12-26 26-26h156c14 0 26 12 26 26v8H150v-8Z" fill="#88c065"/>
  <path d="M98 226c8-14 18-24 32-30" stroke="#4a7e45" stroke-width="16" stroke-linecap="round"/>
  <path d="M388 226c-8-14-18-24-32-30" stroke="#4a7e45" stroke-width="16" stroke-linecap="round"/>
  <path d="M80 192c22-12 48-20 78-22" stroke="#6db564" stroke-width="18" stroke-linecap="round"/>
  <path d="M420 192c-22-12-48-20-78-22" stroke="#6db564" stroke-width="18" stroke-linecap="round"/>
</svg>
