<svg xmlns="http://www.w3.org/2000/svg" viewBox="0 0 500 340" fill="none">
  <rect width="500" height="340" rx="32" fill="#f5fef0"/>
  <path d="M32 252c120-46 170-20 220 2s116 42 180-4" stroke="#83b36d" stroke-width="24" stroke-linecap="round"/>
  <path d="M32 290c120-45 170-22 220 0s116 38 180-6" stroke="#b0d9a7" stroke-width="22" stroke-linecap="round"/>
  <path d="M32 210c120-45 170-20 220 5s116 45 180 0" stroke="#93c87a" stroke-width="20" stroke-linecap="round"/>
  <path d="M60 62c12-30 38-52 80-54 71-2 96 72 73 108-22 34-153 50-168-22Z" fill="#ffdd6d"/>
  <path d="M460 172c0 10-12 18-26 18s-26-8-26-18c0-9 12-17 26-17s26 8 26 17Z" fill="#ffeb91"/>
  <path d="M418 173c0 10-8 18-18 18s-18-8-18-18 8-18 18-18 18 8 18 18Z" fill="#f5d45c"/>
  <path d="M44 180l108-88" stroke="#4a7e45" stroke-width="18" stroke-linecap="round"/>
  <path d="M136 182l108-86" stroke="#4a7e45" stroke-width="18" stroke-linecap="round"/>
  <path d="M80 120l108-86" stroke="#4a7e45" stroke-width="18" stroke-linecap="round" opacity="0.75"/>
  <path d="M100 210l108-86" stroke="#4a7e45" stroke-width="18" stroke-linecap="round" opacity="0.5"/>
</svg>
